<svg viewBox="314.027 8.885 51.787 45.06" width="51.787" height="45.06"  xmlns="http://www.w3.org/2000/svg">
  <path d="M349.231 45.0563C348.092 37.9017 347.041 31.1422 345.924 24.0973L344.128 25.5678C340.129 29.1022 335.53 31.8896 330.55 33.7977C329.767 34.1419 328.91 34.2859 328.058 34.217C327.206 34.148 326.384 33.8682 325.666 33.4027C322.578 31.4275 319.38 29.584 316.205 27.6966C316.68 26.9996 317.347 26.455 318.124 26.128C318.901 25.8011 319.755 25.7056 320.585 25.8531C323.087 26.1202 325.602 26.2447 328.119 26.2262C328.909 26.2138 329.675 25.9527 330.309 25.48C339.069 18.0181 347.829 10.527 356.59 3.00668C358.866 0.998629 361.815 -0.075069 364.846 1.8666e-06C367.562 1.8666e-06 368.701 1.79962 367.54 4.38932C366.899 5.68765 366.014 6.85004 364.934 7.81298C362.372 10.1613 359.7 12.3779 357.028 14.5945C356.681 14.85 356.395 15.1794 356.191 15.5588C355.986 15.9383 355.868 16.3585 355.845 16.7891C355.276 24.2071 354.575 31.625 354.005 39.0429C354 39.7942 353.812 40.5329 353.457 41.1946C353.102 41.8564 352.591 42.4211 351.969 42.8397C351.018 43.5304 350.105 44.2702 349.231 45.0563Z" fill="#47585B" transform="matrix(1, 0, 0, 1, -2.177774, 8.888507)"></path>
  <path d="M325.096 13.8702C327.133 12.1145 328.557 9.83207 331.842 10.3368C335.127 10.8416 338.412 10.8636 341.872 11.105L342.989 11.2586C340.493 13.4532 338.215 15.2968 335.915 17.2061C335.784 17.3015 335.635 17.3684 335.476 17.4024C335.318 17.4364 335.154 17.4369 334.995 17.4036C331.929 16.438 328.863 15.4504 325.819 14.4408C325.6 14.375 325.447 14.1555 325.096 13.8702Z" fill="#47585B" transform="matrix(1, 0, 0, 1, -2.177774, 8.888507)"></path>
</svg>